<svg width="16" height="16" viewBox="0 0 16 16" fill="none" xmlns="http://www.w3.org/2000/svg">
<path d="M9.66245 8.00536L13.325 4.34465C13.7848 3.88482 13.7848 3.14286 13.325 2.68304C12.8651 2.22322 12.1232 2.22322 11.6633 2.68304L8.00084 6.34375L4.33924 2.68215C3.87942 2.22232 3.13745 2.22232 2.67763 2.68215C2.21781 3.14197 2.21781 3.88393 2.67763 4.34375L6.34013 8.00447L2.67763 11.6652C2.21781 12.125 2.21781 12.867 2.67763 13.3268C3.13834 13.7866 3.88299 13.7866 4.33924 13.3268L8.00174 9.66607L11.6642 13.3268C12.1241 13.7866 12.866 13.7866 13.3258 13.3268C13.7821 12.867 13.7821 12.125 13.3214 11.6643L9.66245 8.00536Z" fill="white"/>
</svg>
